<svg xmlns="http://www.w3.org/2000/svg" viewBox="0 0 64 64" fill="none">
  <path fill="#0F172A" d="M32 2l22 10v18c0 15.6-9.2 29.6-22 32C19.2 59.6 10 45.6 10 30V12L32 2z"/>
  <path fill="#FFFFFF" d="M19 21.5h6.2l6.8 12.1 6.8-12.1H45v21h-5.8V32.2l-6.1 10.3h-2.2l-6.1-10.3v10.3H19v-21z"/>
  <path fill="#E5E7EB" d="M41.5 33c-1.38 0-2.5 1.12-2.5 2.5V37h-1.2c-.99 0-1.8.81-1.8 1.8v6.9c0 .99.81 1.8 1.8 1.8h7.4c.99 0 1.8-.81 1.8-1.8v-6.9c0-.99-.81-1.8-1.8-1.8H44v-1.5c0-1.38-1.12-2.5-2.5-2.5zm-1 4v-1.5c0-.55.45-1 1-1s1 .45 1 1V37h-2z"/>
</svg>
