<svg width="512" height="512" viewBox="0 0 512 512" fill="none" xmlns="http://www.w3.org/2000/svg">
  <defs>
    <linearGradient id="socialGradient" x1="0" y1="0" x2="512" y2="512" gradientUnits="userSpaceOnUse">
      <stop offset="0%" stop-color="#4F46E5"/>
      <stop offset="52%" stop-color="#9333EA"/>
      <stop offset="100%" stop-color="#DB2777"/>
    </linearGradient>
  </defs>

  <rect width="512" height="512" rx="120" fill="url(#socialGradient)"/>

  <g fill="none" stroke="white" stroke-linecap="round" stroke-linejoin="round">
    <path
      d="M140 208L330 150V362L140 304V208Z"
      fill="white"
      fill-opacity="0.96"
      stroke="white"
      stroke-width="0"
    />
    <path d="M130 220H166V292H130C111 292 96 277 96 256C96 235 111 220 130 220Z" fill="white" fill-opacity="0.9" stroke-width="0" />
    <path d="M208 326L236 434" stroke="white" stroke-width="26" />
    <path d="M190 332L246 318" stroke="white" stroke-width="26" />
    <path d="M352 210C385 230 404 250 404 256C404 262 385 282 352 302" stroke="white" stroke-width="22" stroke-opacity="0.92" />
    <path d="M362 170C413 206 440 234 440 256C440 278 413 306 362 342" stroke="white" stroke-width="18" stroke-opacity="0.75" />
  </g>
</svg>
