<svg xmlns="http://www.w3.org/2000/svg" width="512" height="512" viewBox="0 0 512 512" fill="none">
  <rect width="512" height="512" rx="102" fill="#0EA5E9"/>
  <path fill="#FFFFFF" d="M314.4 149.3c-12.7 0-25.1 3.1-36.1 9l28.2 28.2c7 7 7 18.4 0 25.5l-33.4 33.4c-7 7-18.4 7-25.5 0l-28.2-28.2c-5.9 11-9 23.4-9 36.1 0 27.8 14.9 53.7 38.9 67.4l-74.5 74.5c-9.4 9.4-9.4 24.7 0 34.1l11.1 11.1c9.4 9.4 24.7 9.4 34.1 0l74.5-74.5c13.7 24 39.6 38.9 67.4 38.9 44 0 79.7-35.7 79.7-79.7 0-12.7-3.1-25.1-9-36.1l-28.2 28.2c-7 7-18.4 7-25.5 0l-33.4-33.4c-7-7-7-18.4 0-25.5l28.2-28.2c-11-5.9-23.4-9-36.1-9z"/>
</svg>
